<mxfile host="65bd71144e">
    <diagram id="8YG1A0ZwEYOHbD6Tbtjo" name="Page-1">
        <mxGraphModel dx="1604" dy="1113" grid="1" gridSize="10" guides="1" tooltips="1" connect="1" arrows="1" fold="1" page="1" pageScale="1" pageWidth="1169" pageHeight="827" math="0" shadow="0">
            <root>
                <mxCell id="0"/>
                <mxCell id="1" parent="0"/>
                <mxCell id="14" style="edgeStyle=none;html=1;exitX=0.5;exitY=1;exitDx=0;exitDy=0;" edge="1" parent="1" source="2" target="12">
                    <mxGeometry relative="1" as="geometry"/>
                </mxCell>
                <mxCell id="2" value="Summon&lt;br&gt;init" style="ellipse;whiteSpace=wrap;html=1;aspect=fixed;" vertex="1" parent="1">
                    <mxGeometry x="534" y="110" width="80" height="80" as="geometry"/>
                </mxCell>
                <mxCell id="3" value="Boost" style="rounded=1;whiteSpace=wrap;html=1;" vertex="1" parent="1">
                    <mxGeometry x="354" y="430" width="120" height="60" as="geometry"/>
                </mxCell>
                <mxCell id="56" style="edgeStyle=none;html=1;exitX=0.75;exitY=0;exitDx=0;exitDy=0;startArrow=classic;startFill=1;entryX=0.5;entryY=1;entryDx=0;entryDy=0;" edge="1" parent="1" source="4" target="13">
                    <mxGeometry relative="1" as="geometry">
                        <mxPoint x="774" y="270" as="targetPoint"/>
                        <Array as="points">
                            <mxPoint x="614" y="350"/>
                            <mxPoint x="834" y="350"/>
                        </Array>
                    </mxGeometry>
                </mxCell>
                <mxCell id="4" value="Move" style="rounded=1;whiteSpace=wrap;html=1;" vertex="1" parent="1">
                    <mxGeometry x="524" y="370" width="120" height="60" as="geometry"/>
                </mxCell>
                <mxCell id="6" value="Reverse" style="rounded=1;whiteSpace=wrap;html=1;" vertex="1" parent="1">
                    <mxGeometry x="274" y="310" width="120" height="60" as="geometry"/>
                </mxCell>
                <mxCell id="43" style="edgeStyle=none;html=1;exitX=0;exitY=0.5;exitDx=0;exitDy=0;entryX=0.5;entryY=1;entryDx=0;entryDy=0;startArrow=classic;startFill=1;" edge="1" parent="1" source="7" target="6">
                    <mxGeometry relative="1" as="geometry">
                        <Array as="points">
                            <mxPoint x="334" y="520"/>
                        </Array>
                    </mxGeometry>
                </mxCell>
                <mxCell id="7" value="Slide" style="rounded=1;whiteSpace=wrap;html=1;" vertex="1" parent="1">
                    <mxGeometry x="524" y="490" width="120" height="60" as="geometry"/>
                </mxCell>
                <mxCell id="8" value="Turn" style="rounded=1;whiteSpace=wrap;html=1;" vertex="1" parent="1">
                    <mxGeometry x="689" y="490" width="120" height="60" as="geometry"/>
                </mxCell>
                <mxCell id="9" value="Drift" style="rounded=1;whiteSpace=wrap;html=1;" vertex="1" parent="1">
                    <mxGeometry x="794" y="370" width="120" height="60" as="geometry"/>
                </mxCell>
                <mxCell id="11" value="Reset" style="ellipse;shape=doubleEllipse;whiteSpace=wrap;html=1;aspect=fixed;" vertex="1" parent="1">
                    <mxGeometry x="544" y="600" width="80" height="80" as="geometry"/>
                </mxCell>
                <mxCell id="12" value="Idle" style="rounded=1;whiteSpace=wrap;html=1;" vertex="1" parent="1">
                    <mxGeometry x="514" y="240" width="120" height="60" as="geometry"/>
                </mxCell>
                <mxCell id="13" value="Trick" style="rounded=1;whiteSpace=wrap;html=1;" vertex="1" parent="1">
                    <mxGeometry x="774" y="240" width="120" height="60" as="geometry"/>
                </mxCell>
                <mxCell id="16" value="" style="endArrow=classic;html=1;entryX=0.5;entryY=0;entryDx=0;entryDy=0;startArrow=classic;startFill=1;" edge="1" parent="1" target="4">
                    <mxGeometry relative="1" as="geometry">
                        <mxPoint x="584" y="300" as="sourcePoint"/>
                        <mxPoint x="754" y="390" as="targetPoint"/>
                    </mxGeometry>
                </mxCell>
                <mxCell id="17" value="Move botton Press" style="edgeLabel;resizable=0;html=1;align=center;verticalAlign=middle;" connectable="0" vertex="1" parent="16">
                    <mxGeometry relative="1" as="geometry"/>
                </mxCell>
                <mxCell id="30" value="" style="endArrow=classic;html=1;exitX=1;exitY=0.25;exitDx=0;exitDy=0;entryX=0;entryY=0.25;entryDx=0;entryDy=0;startArrow=classic;startFill=1;" edge="1" parent="1" source="4" target="9">
                    <mxGeometry relative="1" as="geometry">
                        <mxPoint x="644" y="399.58" as="sourcePoint"/>
                        <mxPoint x="744" y="399.58" as="targetPoint"/>
                    </mxGeometry>
                </mxCell>
                <mxCell id="31" value="Break &amp;amp; Turn&lt;br&gt;button press" style="edgeLabel;resizable=0;html=1;align=center;verticalAlign=middle;" connectable="0" vertex="1" parent="30">
                    <mxGeometry relative="1" as="geometry"/>
                </mxCell>
                <mxCell id="38" value="" style="endArrow=classic;html=1;exitX=0;exitY=0.5;exitDx=0;exitDy=0;startArrow=classic;startFill=1;entryX=0.5;entryY=0;entryDx=0;entryDy=0;" edge="1" parent="1" source="12" target="6">
                    <mxGeometry relative="1" as="geometry">
                        <mxPoint x="504" y="229.9999999999999" as="sourcePoint"/>
                        <mxPoint x="254" y="169.9999999999999" as="targetPoint"/>
                        <Array as="points">
                            <mxPoint x="334" y="270"/>
                        </Array>
                    </mxGeometry>
                </mxCell>
                <mxCell id="39" value="Break button press" style="edgeLabel;resizable=0;html=1;align=center;verticalAlign=middle;" connectable="0" vertex="1" parent="38">
                    <mxGeometry relative="1" as="geometry">
                        <mxPoint as="offset"/>
                    </mxGeometry>
                </mxCell>
                <mxCell id="40" value="" style="endArrow=classic;html=1;entryX=0.5;entryY=0;entryDx=0;entryDy=0;exitX=0.5;exitY=1;exitDx=0;exitDy=0;startArrow=classic;startFill=1;" edge="1" parent="1" source="4" target="7">
                    <mxGeometry relative="1" as="geometry">
                        <mxPoint x="594" y="309.9999999999999" as="sourcePoint"/>
                        <mxPoint x="594" y="379.9999999999999" as="targetPoint"/>
                    </mxGeometry>
                </mxCell>
                <mxCell id="41" value="Break botton Press" style="edgeLabel;resizable=0;html=1;align=center;verticalAlign=middle;" connectable="0" vertex="1" parent="40">
                    <mxGeometry relative="1" as="geometry"/>
                </mxCell>
                <mxCell id="46" value="" style="endArrow=classic;html=1;exitX=0;exitY=0.5;exitDx=0;exitDy=0;entryX=0.5;entryY=0;entryDx=0;entryDy=0;startArrow=classic;startFill=1;" edge="1" parent="1" source="4" target="3">
                    <mxGeometry relative="1" as="geometry">
                        <mxPoint x="364" y="429.31" as="sourcePoint"/>
                        <mxPoint x="464" y="429.31" as="targetPoint"/>
                        <Array as="points">
                            <mxPoint x="414" y="400"/>
                        </Array>
                    </mxGeometry>
                </mxCell>
                <mxCell id="47" value="Boost button press" style="edgeLabel;resizable=0;html=1;align=center;verticalAlign=middle;" connectable="0" vertex="1" parent="46">
                    <mxGeometry relative="1" as="geometry"/>
                </mxCell>
                <mxCell id="48" value="" style="endArrow=classic;html=1;exitX=1;exitY=0.5;exitDx=0;exitDy=0;entryX=0;entryY=0.5;entryDx=0;entryDy=0;startArrow=classic;startFill=1;" edge="1" parent="1" source="12" target="13">
                    <mxGeometry relative="1" as="geometry">
                        <mxPoint x="654" y="290" as="sourcePoint"/>
                        <mxPoint x="734" y="270" as="targetPoint"/>
                    </mxGeometry>
                </mxCell>
                <mxCell id="49" value="Trick button Press" style="edgeLabel;resizable=0;html=1;align=center;verticalAlign=middle;" connectable="0" vertex="1" parent="48">
                    <mxGeometry relative="1" as="geometry"/>
                </mxCell>
                <mxCell id="53" value="" style="endArrow=classic;html=1;exitX=1;exitY=0.75;exitDx=0;exitDy=0;entryX=0.5;entryY=0;entryDx=0;entryDy=0;startArrow=classic;startFill=1;" edge="1" parent="1" source="4" target="8">
                    <mxGeometry relative="1" as="geometry">
                        <mxPoint x="654" y="395" as="sourcePoint"/>
                        <mxPoint x="774" y="395" as="targetPoint"/>
                        <Array as="points">
                            <mxPoint x="749" y="415"/>
                        </Array>
                    </mxGeometry>
                </mxCell>
                <mxCell id="54" value="Turn&lt;br&gt;button press" style="edgeLabel;resizable=0;html=1;align=center;verticalAlign=middle;" connectable="0" vertex="1" parent="53">
                    <mxGeometry relative="1" as="geometry"/>
                </mxCell>
                <mxCell id="57" value="Trick button Press" style="edgeLabel;resizable=0;html=1;align=center;verticalAlign=middle;" connectable="0" vertex="1" parent="1">
                    <mxGeometry x="714" y="280" as="geometry">
                        <mxPoint x="10" y="71" as="offset"/>
                    </mxGeometry>
                </mxCell>
                <mxCell id="62" value="" style="endArrow=classic;html=1;exitX=0;exitY=0.5;exitDx=0;exitDy=0;entryX=0;entryY=0.5;entryDx=0;entryDy=0;" edge="1" parent="1" source="2" target="11">
                    <mxGeometry relative="1" as="geometry">
                        <mxPoint x="604" y="480" as="sourcePoint"/>
                        <mxPoint x="470" y="590" as="targetPoint"/>
                        <Array as="points">
                            <mxPoint x="240" y="150"/>
                            <mxPoint x="240" y="640"/>
                        </Array>
                    </mxGeometry>
                </mxCell>
                <mxCell id="63" value="Reset button Press" style="edgeLabel;resizable=0;html=1;align=center;verticalAlign=middle;" connectable="0" vertex="1" parent="62">
                    <mxGeometry relative="1" as="geometry"/>
                </mxCell>
                <mxCell id="64" value="&lt;font style=&quot;&quot;&gt;&lt;span style=&quot;font-size: 27px;&quot;&gt;&lt;b&gt;Character Behaviours Flowchart&lt;/b&gt;&lt;/span&gt;&lt;/font&gt;" style="text;html=1;strokeColor=none;fillColor=none;align=center;verticalAlign=middle;whiteSpace=wrap;rounded=0;" vertex="1" parent="1">
                    <mxGeometry x="360" y="15" width="450" height="30" as="geometry"/>
                </mxCell>
            </root>
        </mxGraphModel>
    </diagram>
</mxfile>